<?xml version="1.0" encoding="UTF-8"?>
<svg version="1.1" xmlns="http://www.w3.org/2000/svg" width="666" height="375">
<path d="M0 0 C12.54 0 25.08 0 38 0 C39.32 3.3 40.64 6.6 42 10 C42.59167969 11.42699219 42.59167969 11.42699219 43.1953125 12.8828125 C43.50210938 13.62273437 43.80890625 14.36265625 44.125 15.125 C44.43695313 15.87007812 44.74890625 16.61515625 45.0703125 17.3828125 C46.06637795 20.18686228 46.74748122 23.02226186 47.44628906 25.91210938 C48.33439913 29.26092651 49.56268379 32.45964723 50.8125 35.6875 C51.07603271 36.37956543 51.33956543 37.07163086 51.61108398 37.78466797 C52.83954261 41.0050717 54.08468893 44.2189458 55.328125 47.43359375 C58.35276732 55.25363418 61.17663679 63.09458301 64 71 C64.33 47.9 64.66 24.8 65 1 C69.41734891 0.11653022 73.23093594 -0.06723172 77.671875 0.0859375 C78.39489807 0.10717682 79.11792114 0.12841614 79.862854 0.15029907 C81.38245227 0.19636057 82.90196658 0.24527083 84.42138672 0.296875 C86.75601064 0.37520166 89.09077127 0.44212043 91.42578125 0.5078125 C92.90366716 0.55401019 94.3815328 0.60086197 95.859375 0.6484375 C96.91085724 0.67821182 96.91085724 0.67821182 97.98358154 0.70858765 C102.88481897 0.88481897 102.88481897 0.88481897 104 2 C104.09762224 4.34027124 104.12997604 6.65098381 104.12025452 8.99171448 C104.12110894 9.73169188 104.12196337 10.47166928 104.12284368 11.23407024 C104.12450069 13.73232413 104.11897353 16.23051198 104.11352539 18.72875977 C104.11324354 20.51213581 104.11340121 22.29551197 104.1139679 24.07888794 C104.11425596 28.93612191 104.10835788 33.79333141 104.10139394 38.65055966 C104.09516179 43.72080948 104.09455671 48.79105981 104.09336853 53.86131287 C104.0902548 63.46963693 104.08204086 73.07794968 104.07201904 82.68626875 C104.06085919 93.62199528 104.05534778 104.55772234 104.05032361 115.49345315 C104.03985828 137.99564172 104.02225804 160.49782022 104 183 C99.5890404 182.88083665 95.17826283 182.75653809 90.76757812 182.62768555 C89.27022126 182.58464137 87.77282487 182.54294799 86.27539062 182.50268555 C84.11055644 182.44423502 81.94591566 182.38076547 79.78125 182.31640625 C77.8331543 182.26141968 77.8331543 182.26141968 75.84570312 182.20532227 C71.84696857 181.99182964 67.9656874 181.542003 64 181 C61.09167434 173.60999218 58.36693764 166.20308284 55.90625 158.65234375 C55.14969721 156.43812244 54.32608905 154.32269492 53.375 152.1875 C51.93130949 148.8407629 51.00044606 145.50156121 50 142 C49.26387066 140.33570757 48.52726551 138.67160326 47.78125 137.01171875 C46.51223074 133.74399416 45.7486999 130.348287 44.94140625 126.94140625 C44.11923383 124.37254387 43.15853762 122.20942038 41.94116211 119.81616211 C41.57840683 119.1002037 41.21565155 118.3842453 40.84190369 117.64659119 C40.56407547 117.10321609 40.28624725 116.559841 40 116 C39.98969254 116.79957626 39.97938507 117.59915253 39.96876526 118.42295837 C39.87095918 125.94267296 39.76846935 133.46230193 39.66066074 140.98187923 C39.60539645 144.8481601 39.551971 148.71444848 39.50268555 152.58081055 C39.4550935 156.30910087 39.40275285 160.03729652 39.34705925 163.76547432 C39.32661222 165.19086933 39.30790309 166.61629032 39.29092598 168.04173088 C39.26693404 170.03170541 39.23629864 172.02159655 39.20532227 174.01147461 C39.18977798 175.14620712 39.1742337 176.28093964 39.15821838 177.45005798 C39 180 39 180 38 181 C30.23609266 182.3233933 22.35585236 182.33649204 14.5 182.5625 C13.09113527 182.60577737 11.68228093 182.64939431 10.2734375 182.69335938 C6.8490454 182.79890571 3.42458708 182.90101798 0 183 C-0.15386393 159.73041828 -0.30189827 136.46080601 -0.4429636 113.19114304 C-0.5085968 102.38701188 -0.5761486 91.58289905 -0.64819336 80.77880859 C-0.71097152 71.36364469 -0.77017405 61.94846632 -0.82505554 52.53325295 C-0.85424917 47.54647714 -0.88525181 42.55972718 -0.92053413 37.57299042 C-0.9536715 32.88144209 -0.98203584 28.18988936 -1.00670624 23.49828911 C-1.01661799 21.77452169 -1.02828818 20.05076337 -1.04183006 18.32702065 C-1.06003247 15.97686268 -1.07195653 13.6267541 -1.08229065 11.27655029 C-1.09058679 9.96022991 -1.09888292 8.64390953 -1.10743046 7.28770065 C-1 4 -1 4 0 0 Z " fill="#E30913" transform="translate(274,95)"/>
<path d="M0 0 C1.1199511 0.03185898 1.1199511 0.03185898 2.26252747 0.06436157 C3.83517534 0.11050006 5.40774383 0.1594177 6.98022461 0.2109375 C9.39615557 0.28911506 11.81221866 0.35609871 14.22851562 0.421875 C15.75653073 0.46808298 17.28452652 0.51493542 18.8125 0.5625 C19.90149849 0.59227432 19.90149849 0.59227432 21.01249695 0.62265015 C26.09189732 0.79892857 26.09189732 0.79892857 27.20703125 1.9140625 C27.30465349 4.25433374 27.33700729 6.56504631 27.32728577 8.90577698 C27.32814019 9.64575438 27.32899462 10.38573178 27.32987493 11.14813274 C27.33153194 13.64638663 27.32600478 16.14457448 27.32055664 18.64282227 C27.32027479 20.42619831 27.32043246 22.20957447 27.32099915 23.99295044 C27.32128721 28.85018441 27.31538913 33.70739391 27.30842519 38.56462216 C27.30219304 43.63487198 27.30158796 48.70512231 27.30039978 53.77537537 C27.29728605 63.38369943 27.28907211 72.99201218 27.27905029 82.60033125 C27.26789044 93.53605778 27.26237903 104.47178484 27.25735486 115.40751565 C27.24688953 137.90970422 27.22928929 160.41188272 27.20703125 182.9140625 C22.79607165 182.79489915 18.38529408 182.67060059 13.97460938 182.54174805 C12.47725251 182.49870387 10.97985612 182.45701049 9.48242188 182.41674805 C7.31758769 182.35829752 5.15294691 182.29482797 2.98828125 182.23046875 C1.04018555 182.17548218 1.04018555 182.17548218 -0.94726562 182.11938477 C-4.94600018 181.90589214 -8.82728135 181.4560655 -12.79296875 180.9140625 C-13.66068904 178.83633779 -14.51170494 176.75163073 -15.35546875 174.6640625 C-15.83113281 173.50390625 -16.30679687 172.34375 -16.796875 171.1484375 C-17.75067399 168.05139606 -18.00280231 166.84084549 -16.79296875 163.9140625 C-16.68339844 164.47996094 -16.57382812 165.04585937 -16.4609375 165.62890625 C-16.30238281 166.36238281 -16.14382813 167.09585938 -15.98046875 167.8515625 C-15.75423828 168.94791016 -15.75423828 168.94791016 -15.5234375 170.06640625 C-15.28238281 170.67613281 -15.04132813 171.28585937 -14.79296875 171.9140625 C-13.80296875 172.2440625 -12.81296875 172.5740625 -11.79296875 172.9140625 C-11.79296875 174.5640625 -11.79296875 176.2140625 -11.79296875 177.9140625 C-10.60058594 177.90246094 -9.40820312 177.89085937 -8.1796875 177.87890625 C-6.61328281 177.86952658 -5.04687644 177.86042657 -3.48046875 177.8515625 C-2.30194336 177.83899414 -2.30194336 177.83899414 -1.09960938 177.82617188 C0.03637695 177.82133789 0.03637695 177.82133789 1.1953125 177.81640625 C1.89180908 177.81116943 2.58830566 177.80593262 3.3059082 177.80053711 C5.20703125 177.9140625 5.20703125 177.9140625 8.20703125 178.9140625 C10.59957701 179.13966926 12.99631248 179.32254845 15.39453125 179.4765625 C16.66683594 179.56035156 17.93914062 179.64414062 19.25 179.73046875 C20.22582031 179.79105469 21.20164062 179.85164062 22.20703125 179.9140625 C21.00842739 173.00419386 19.23165581 166.56029587 16.83203125 159.9765625 C16.51967529 159.10193359 16.20731934 158.22730469 15.88549805 157.32617188 C15.00022741 154.85265537 14.10599558 152.38263023 13.20703125 149.9140625 C12.80871094 148.81964844 12.41039062 147.72523438 12 146.59765625 C11.36796006 144.86773019 10.73399132 143.13850701 10.09765625 141.41015625 C9.10044193 138.6153319 8.18497465 135.79917964 7.26953125 132.9765625 C5.94432728 128.94400822 4.45599897 125.05874889 2.76953125 121.1640625 C0.53172791 115.92432784 -1.198249 110.59675461 -2.83642578 105.14892578 C-4.60999303 99.32029445 -6.70109245 93.64098444 -8.91381836 87.96582031 C-10.79296875 83.10882522 -10.79296875 83.10882522 -10.79296875 80.9140625 C-11.45296875 80.9140625 -12.11296875 80.9140625 -12.79296875 80.9140625 C-15.98461342 74.07482391 -18.52523233 68.52960368 -17.79296875 60.9140625 C-14.91536803 64.31486335 -14.32345052 66.32261719 -12.79296875 70.9140625 C-12.46296875 47.8140625 -12.13296875 24.7140625 -11.79296875 0.9140625 C-7.70617545 -0.10763582 -4.15594001 -0.13795676 0 0 Z " fill="#AD060F" transform="translate(350.79296875,95.0859375)"/>
<path d="M0 0 C12.54 0 25.08 0 38 0 C39.32 3.3 40.64 6.6 42 10 C42.41765625 10.98613281 42.8353125 11.97226563 43.265625 12.98828125 C43.75289063 14.13876953 43.75289063 14.13876953 44.25 15.3125 C44.58515625 16.09238281 44.9203125 16.87226562 45.265625 17.67578125 C46.07358052 20.23287451 46.13209923 22.33442618 46 25 C44 25 44 25 42.4375 23.6875 C39.80952107 20.60248126 39.88722457 17.68370784 39.9375 13.8125 C39.94652344 12.91144531 39.95554687 12.01039062 39.96484375 11.08203125 C39.97644531 10.39496094 39.98804688 9.70789063 40 9 C39.34 9 38.68 9 38 9 C37.505 7.02 37.505 7.02 37 5 C36.01 5 35.02 5 34 5 C34 4.34 34 3.68 34 3 C23.77 3 13.54 3 3 3 C5.55906201 11.95671705 8.15075856 20.49470209 11.5 29.125 C14.19059429 36.11319881 16.75117642 43.11272751 19.08886719 50.22753906 C20.30820044 53.93781463 21.57919797 57.62833022 22.875 61.3125 C23.12910645 62.0355835 23.38321289 62.75866699 23.64501953 63.50366211 C25.2697067 68.07691123 27.02363912 72.57496221 28.875 77.0625 C29.61508258 78.95201725 30.35473649 80.84170462 31.09127808 82.73260498 C31.704748 84.26330278 32.34212388 85.78460438 33.00125122 87.29620361 C41.1134281 106.0420337 40.86563109 123.52952974 40.14404297 143.50256348 C40.00628455 147.61613716 39.92411168 151.73086413 39.83398438 155.84570312 C39.69220209 161.81450402 39.53980817 167.78284384 39.33227539 173.74975586 C39.29260147 174.9364537 39.25292755 176.12315155 39.21205139 177.34580994 C39 180 39 180 38 181 C30.23609266 182.3233933 22.35585236 182.33649204 14.5 182.5625 C13.09113527 182.60577737 11.68228093 182.64939431 10.2734375 182.69335938 C6.8490454 182.79890571 3.42458708 182.90101798 0 183 C-0.15386393 159.73041828 -0.30189827 136.46080601 -0.4429636 113.19114304 C-0.5085968 102.38701188 -0.5761486 91.58289905 -0.64819336 80.77880859 C-0.71097152 71.36364469 -0.77017405 61.94846632 -0.82505554 52.53325295 C-0.85424917 47.54647714 -0.88525181 42.55972718 -0.92053413 37.57299042 C-0.9536715 32.88144209 -0.98203584 28.18988936 -1.00670624 23.49828911 C-1.01661799 21.77452169 -1.02828818 20.05076337 -1.04183006 18.32702065 C-1.06003247 15.97686268 -1.07195653 13.6267541 -1.08229065 11.27655029 C-1.09058679 9.96022991 -1.09888292 8.64390953 -1.10743046 7.28770065 C-1 4 -1 4 0 0 Z " fill="#AC060F" transform="translate(274,95)"/>
<path d="M0 0 C12.54 0 25.08 0 38 0 C38.495 2.475 38.495 2.475 39 5 C38.505 3.515 38.505 3.515 38 2 C26.12 2 14.24 2 2 2 C2 61.07 2 120.14 2 181 C3.32 180.67 4.64 180.34 6 180 C16.23 180 26.46 180 37 180 C37 155.25 37 130.5 37 105 C40.37621059 109.50161412 40.35725846 110.55156259 40.26464844 115.95581055 C40.25693924 116.64729187 40.24923004 117.33877319 40.24128723 118.0512085 C40.21207929 120.3302022 40.16104326 122.60813248 40.109375 124.88671875 C40.08387029 126.47042497 40.05957467 128.05415109 40.03643799 129.63789368 C39.98491889 132.95260223 39.92342465 136.26691757 39.85400391 139.58129883 C39.76497668 143.83849302 39.69360119 148.095742 39.62871933 152.3533659 C39.56609099 156.4062645 39.49412933 160.45898249 39.421875 164.51171875 C39.40892143 165.28916632 39.39596786 166.06661388 39.38262177 166.86762047 C39.34459297 169.0560121 39.29986362 171.24415661 39.25292969 173.43237305 C39.22833679 174.67939499 39.2037439 175.92641693 39.17840576 177.21122742 C39 180 39 180 38 181 C30.23609266 182.3233933 22.35585236 182.33649204 14.5 182.5625 C13.09113527 182.60577737 11.68228093 182.64939431 10.2734375 182.69335938 C6.8490454 182.79890571 3.42458708 182.90101798 0 183 C-0.15386393 159.73041828 -0.30189827 136.46080601 -0.4429636 113.19114304 C-0.5085968 102.38701188 -0.5761486 91.58289905 -0.64819336 80.77880859 C-0.71097152 71.36364469 -0.77017405 61.94846632 -0.82505554 52.53325295 C-0.85424917 47.54647714 -0.88525181 42.55972718 -0.92053413 37.57299042 C-0.9536715 32.88144209 -0.98203584 28.18988936 -1.00670624 23.49828911 C-1.01661799 21.77452169 -1.02828818 20.05076337 -1.04183006 18.32702065 C-1.06003247 15.97686268 -1.07195653 13.6267541 -1.08229065 11.27655029 C-1.09058679 9.96022991 -1.09888292 8.64390953 -1.10743046 7.28770065 C-1 4 -1 4 0 0 Z " fill="#6C0B11" transform="translate(274,95)"/>
<path d="M0 0 C1.1199511 0.03185898 1.1199511 0.03185898 2.26252747 0.06436157 C3.83517534 0.11050006 5.40774383 0.1594177 6.98022461 0.2109375 C9.39615557 0.28911506 11.81221866 0.35609871 14.22851562 0.421875 C15.75653073 0.46808298 17.28452652 0.51493542 18.8125 0.5625 C19.90149849 0.59227432 19.90149849 0.59227432 21.01249695 0.62265015 C26.09189732 0.79892857 26.09189732 0.79892857 27.20703125 1.9140625 C27.30465349 4.25433374 27.33700729 6.56504631 27.32728577 8.90577698 C27.32814019 9.64575438 27.32899462 10.38573178 27.32987493 11.14813274 C27.33153194 13.64638663 27.32600478 16.14457448 27.32055664 18.64282227 C27.32027479 20.42619831 27.32043246 22.20957447 27.32099915 23.99295044 C27.32128721 28.85018441 27.31538913 33.70739391 27.30842519 38.56462216 C27.30219304 43.63487198 27.30158796 48.70512231 27.30039978 53.77537537 C27.29728605 63.38369943 27.28907211 72.99201218 27.27905029 82.60033125 C27.26789044 93.53605778 27.26237903 104.47178484 27.25735486 115.40751565 C27.24688953 137.90970422 27.22928929 160.41188272 27.20703125 182.9140625 C26.54703125 182.9140625 25.88703125 182.9140625 25.20703125 182.9140625 C25.20703125 123.1840625 25.20703125 63.4540625 25.20703125 1.9140625 C13.32703125 1.9140625 1.44703125 1.9140625 -10.79296875 1.9140625 C-10.79296875 27.3240625 -10.79296875 52.7340625 -10.79296875 78.9140625 C-12.80070831 76.90632294 -13.78689729 75.54532633 -14.79296875 72.9140625 C-14.41796875 70.6640625 -14.41796875 70.6640625 -13.79296875 68.9140625 C-13.46296875 69.5740625 -13.13296875 70.2340625 -12.79296875 70.9140625 C-12.46296875 47.8140625 -12.13296875 24.7140625 -11.79296875 0.9140625 C-7.70617545 -0.10763582 -4.15594001 -0.13795676 0 0 Z " fill="#250607" transform="translate(350.79296875,95.0859375)"/>
<path d="M0 0 C11.88 0 23.76 0 36 0 C36 58.74 36 117.48 36 178 C35.67 178 35.34 178 35 178 C35 119.59 35 61.18 35 1 C23.78 1 12.56 1 1 1 C1.08881021 8.9041087 1.17946372 16.80784022 1.28729248 24.71165466 C1.33700708 28.39318236 1.38349431 32.07468288 1.421875 35.75634766 C1.45904729 39.30968666 1.50548833 42.86279986 1.55806351 46.41594315 C1.58531505 48.41527092 1.60323721 50.41471894 1.62094116 52.41415405 C1.7344256 59.49936772 2.26384768 66.11865338 4 73 C4.33 73 4.66 73 5 73 C4.85831863 74.43791516 4.71148957 75.8753237 4.5625 77.3125 C4.48128906 78.11300781 4.40007812 78.91351563 4.31640625 79.73828125 C4 82 4 82 3 85 C2.34 85 1.68 85 1 85 C0.505 82.03 0.505 82.03 0 79 C-0.66 79 -1.32 79 -2 79 C-5.19164467 72.16076141 -7.73226358 66.61554118 -7 59 C-3.96420337 62.16778779 -3.57951267 64.79665187 -3.30859375 69 C-3.0371742 71.43496826 -3.0371742 71.43496826 -1 75 C-0.67 50.25 -0.34 25.5 0 0 Z " fill="#901117" transform="translate(340,97)"/>
<path d="M0 0 C3.37621059 4.50161412 3.35725846 5.55156259 3.26464844 10.95581055 C3.25693924 11.64729187 3.24923004 12.33877319 3.24128723 13.0512085 C3.21207929 15.3302022 3.16104326 17.60813248 3.109375 19.88671875 C3.08387029 21.47042497 3.05957467 23.05415109 3.03643799 24.63789368 C2.98491889 27.95260223 2.92342465 31.26691757 2.85400391 34.58129883 C2.76497668 38.83849302 2.69360119 43.095742 2.62871933 47.3533659 C2.56609099 51.4062645 2.49412933 55.45898249 2.421875 59.51171875 C2.40244465 60.6778901 2.40244465 60.6778901 2.38262177 61.86762047 C2.34459297 64.0560121 2.29986362 66.24415661 2.25292969 68.43237305 C2.22833679 69.67939499 2.2037439 70.92641693 2.17840576 72.21122742 C2 75 2 75 1 76 C-5.1917568 77.01539131 -11.23674685 77.12167318 -17.5 77.0625 C-18.4178125 77.05798828 -19.335625 77.05347656 -20.28125 77.04882812 C-22.52090391 77.03716326 -24.76041545 77.02079614 -27 77 C-27 76.67 -27 76.34 -27 76 C-17.82472512 74.64070002 -9.57063367 75 0 75 C0 50.25 0 25.5 0 0 Z " fill="#260103" transform="translate(311,200)"/>
<path d="M0 0 C0.66 0 1.32 0 2 0 C2.19335938 0.90363281 2.38671875 1.80726563 2.5859375 2.73828125 C2.84632813 3.91777344 3.10671875 5.09726563 3.375 6.3125 C3.75785156 8.07013672 3.75785156 8.07013672 4.1484375 9.86328125 C4.85695531 13.12920445 4.85695531 13.12920445 7 16 C7.2734375 18.05078125 7.2734375 18.05078125 7.375 20.3125 C7.78638246 24.88912985 9.40695591 27.18669987 12 31 C14.16771819 36.98399516 15.42382905 42.64256421 15 49 C12.82864626 46.30908726 11.42920554 43.92529798 10.31640625 40.65625 C10.03055664 39.82754395 9.74470703 38.99883789 9.45019531 38.14501953 C9.15725586 37.27216309 8.86431641 36.39930664 8.5625 35.5 C8.25538086 34.60522949 7.94826172 33.71045898 7.63183594 32.78857422 C5.96377132 27.91384472 4.34777898 23.02321045 2.75 18.125 C1.74915694 15.05776114 0.72259894 12.45510506 -0.75 9.5625 C-2.11770739 6.75869984 -2.42744955 5.0776368 -2 2 C-1.34 1.34 -0.68 0.68 0 0 Z " fill="#980209" transform="translate(355,209)"/>
<path d="M0 0 C2 1 2 1 2.859375 3.125 C3.15328125 4.07375 3.4471875 5.0225 3.75 6 C4.96124242 9.83636859 6.21751447 13.63563574 7.62890625 17.40234375 C7.90702148 18.15322266 8.18513672 18.90410156 8.47167969 19.67773438 C9.02430984 21.16296802 9.58591386 22.6448991 10.15722656 24.12304688 C11.62846539 28.12735891 12.37566916 30.88908223 11 35 C10.505 33.515 10.505 33.515 10 32 C9.34 32 8.68 32 8 32 C4.08284264 25.69900682 1.35747474 20.49627203 1.10546875 12.99609375 C1.12932361 10.9258163 1.12932361 10.9258163 0 9 C-0.06950541 7.45976004 -0.08452357 5.91665012 -0.0625 4.375 C-0.05347656 3.55773437 -0.04445313 2.74046875 -0.03515625 1.8984375 C-0.02355469 1.27195313 -0.01195312 0.64546875 0 0 Z " fill="#940209" transform="translate(288,135)"/>
<path d="M0 0 C11.88 0 23.76 0 36 0 C36 0.99 36 1.98 36 3 C36.66 3 37.32 3 38 3 C43.55580866 16.6332574 43.55580866 16.6332574 44 23 C42 23 42 23 40.4375 21.6875 C37.80952107 18.60248126 37.88722457 15.68370784 37.9375 11.8125 C37.94652344 10.91144531 37.95554687 10.01039062 37.96484375 9.08203125 C37.97644531 8.39496094 37.98804688 7.70789063 38 7 C37.34 7 36.68 7 36 7 C35.505 5.02 35.505 5.02 35 3 C34.01 3 33.02 3 32 3 C32 2.34 32 1.68 32 1 C21.77 1 11.54 1 1 1 C0.67 1.99 0.34 2.98 0 4 C0 2.68 0 1.36 0 0 Z " fill="#CE131B" transform="translate(276,97)"/>
<path d="M0 0 C3.05031251 3.1829348 3.39572681 5.77550528 3.59375 10 C3.961799 12.54454374 3.961799 12.54454374 7 16 C7.33 12.04 7.66 8.08 8 4 C10.29633824 7.44450737 10.54016485 9.93812283 11 14 C11.33 14 11.66 14 12 14 C11.85831863 15.43791516 11.71148957 16.8753237 11.5625 18.3125 C11.48128906 19.11300781 11.40007812 19.91351563 11.31640625 20.73828125 C11 23 11 23 10 26 C9.34 26 8.68 26 8 26 C7.67 24.02 7.34 22.04 7 20 C6.34 20 5.68 20 5 20 C1.80835533 13.16076141 -0.73226358 7.61554118 0 0 Z " fill="#92030B" transform="translate(333,156)"/>
<path d="M0 0 C0.33 0 0.66 0 1 0 C1 25.74 1 51.48 1 78 C-1.00773956 75.99226044 -1.99392854 74.63126383 -3 72 C-2.625 69.75 -2.625 69.75 -2 68 C-1.67 68.66 -1.34 69.32 -1 70 C-0.67 46.9 -0.34 23.8 0 0 Z " fill="#32060C" transform="translate(339,96)"/>
<path d="M0 0 C1.9451 2.91765 2.45276317 4.62537285 3 8 C3.99 8.33 4.98 8.66 6 9 C6 10.65 6 12.3 6 14 C7.19238281 13.97679687 8.38476562 13.95359375 9.61328125 13.9296875 C11.17968124 13.91092822 12.746088 13.89272819 14.3125 13.875 C15.09818359 13.85824219 15.88386719 13.84148437 16.69335938 13.82421875 C17.45068359 13.81777344 18.20800781 13.81132812 18.98828125 13.8046875 C19.68477783 13.79421387 20.38127441 13.78374023 21.09887695 13.77294922 C23 14 23 14 26 16 C22.7 16 19.4 16 16 16 C22.93 16.495 22.93 16.495 30 17 C30 17.33 30 17.66 30 18 C27.33326258 18.02727345 24.66681131 18.04696948 22 18.0625 C20.88431641 18.07506836 20.88431641 18.07506836 19.74609375 18.08789062 C14.73851156 18.10966272 9.95720968 17.71541549 5 17 C4.15838146 14.91999989 3.32699237 12.83585854 2.5 10.75 C2.0359375 9.58984375 1.571875 8.4296875 1.09375 7.234375 C0 4 0 4 0 0 Z " fill="#7A090F" transform="translate(333,259)"/>
<path d="M0 0 C3.20155184 3.62905877 4.43967053 7.61624268 5.9375 12.125 C7.89799331 17.89289045 9.95800654 23.54468923 12.43359375 29.1171875 C13 31 13 31 12 34 C8.49224084 28.15373474 6.1940037 22.76602099 5 16 C4.34 16 3.68 16 3 16 C2.49411853 14.08487728 1.99551609 12.16783078 1.5 10.25 C1.2215625 9.18265625 0.943125 8.1153125 0.65625 7.015625 C0 4 0 4 0 0 Z " fill="#720C10" transform="translate(320,121)"/>
<path d="M0 0 C2.5654594 2.5654594 2.54046087 4.47686668 3 8 C-9.34016344 7.08412849 -21.66944367 6.03571246 -34 5 C-34 4.67 -34 4.34 -34 4 C-22.78 4.33 -11.56 4.66 0 5 C0 3.35 0 1.7 0 0 Z " fill="#AB111B" transform="translate(373,270)"/>
<path d="M0 0 C0.66 0 1.32 0 2 0 C2.66 1.98 3.32 3.96 4 6 C3.67 6 3.34 6 3 6 C2.67 13.59 2.34 21.18 2 29 C1.67 29 1.34 29 1 29 C0.67 25.04 0.34 21.08 0 17 C-0.66 17 -1.32 17 -2 17 C-2 15.35 -2 13.7 -2 12 C-1.34 12 -0.68 12 0 12 C0 8.04 0 4.08 0 0 Z " fill="#920610" transform="translate(308,194)"/>
<path d="M0 0 C0.99 0 1.98 0 3 0 C3 1.32 3 2.64 3 4 C3.66 4 4.32 4 5 4 C5 5.98 5 7.96 5 10 C5.66 10 6.32 10 7 10 C7 12.97 7 15.94 7 19 C4.52748562 15.99614299 3.12314723 13.15575167 1.8125 9.5 C1.46832031 8.5615625 1.12414062 7.623125 0.76953125 6.65625 C0 4 0 4 0 0 Z " fill="#A00C16" transform="translate(326,240)"/>
<path d="M0 0 C1.66611905 -0.042721 3.33382885 -0.04063832 5 0 C6.85790076 1.85790076 6.17949707 4.42472159 6.23046875 6.89453125 C5.96736746 9.29811761 5.18742366 10.9114485 4 13 C3.32694982 11.39850114 2.66177773 9.79368971 2 8.1875 C1.62875 7.29417969 1.2575 6.40085938 0.875 5.48046875 C0 3 0 3 0 0 Z " fill="#90020B" transform="translate(345,189)"/>
<path d="M0 0 C1.94107336 2.91161004 3.25498997 5.66228642 4.625 8.875 C5.07101562 9.90367188 5.51703125 10.93234375 5.9765625 11.9921875 C6.9653375 14.89812928 7.21288192 16.9636316 7 20 C5 20 5 20 3.4375 18.6875 C0.40009272 15.12184798 1 11.44968468 1 7 C0.70307988 4.66175408 0.37979153 2.32622311 0 0 Z " fill="#830B10" transform="translate(313,100)"/>
<path d="M0 0 C3 3.75 3 3.75 3 6 C3.66 6 4.32 6 5 6 C5.81474962 8.8952173 6.62687322 11.79112828 7.4375 14.6875 C7.66759766 15.50412109 7.89769531 16.32074219 8.13476562 17.16210938 C9.23183446 21.08929781 10.28776908 24.98039791 11 29 C7.45464339 26.29829765 7.04510594 23.01704128 6.0625 18.8125 C4.6627704 13.07333365 2.79745699 8.19527727 0 3 C0 2.01 0 1.02 0 0 Z " fill="#530609" transform="translate(314,208)"/>
<path d="M0 0 C3.72319689 2.48213126 4.14845563 4.29178587 5.6875 8.4375 C6.34298828 10.16806641 6.34298828 10.16806641 7.01171875 11.93359375 C8 15 8 15 8 18 C7.34 18 6.68 18 6 18 C5.67 18.66 5.34 19.32 5 20 C5 17.69 5 15.38 5 13 C4.34 13 3.68 13 3 13 C2.01 8.71 1.02 4.42 0 0 Z " fill="#A10107" transform="translate(280,115)"/>
<path d="M0 0 C4.01064113 5.34752151 5.31728876 9.33693613 5 16 C4.01 16.33 3.02 16.66 2 17 C1.34 11.39 0.68 5.78 0 0 Z " fill="#920108" transform="translate(303,176)"/>
<path d="M0 0 C3.07738955 3.21118909 3.37724722 5.87156375 3.74609375 10.109375 C3.91362097 12.13116429 3.91362097 12.13116429 5.125 14.25 C6.27174109 16.54348218 5.7024811 17.60562778 5 20 C1.80835533 13.16076141 -0.73226358 7.61554118 0 0 Z " fill="#950F17" transform="translate(333,156)"/>
<path d="M0 0 C1.34844868 5.6556294 2.36934845 11.2190275 3 17 C1.45921385 14.01559439 0.13026724 10.98992242 -1.125 7.875 C-1.47820312 7.00617188 -1.83140625 6.13734375 -2.1953125 5.2421875 C-3 3 -3 3 -3 1 C-1 0 -1 0 0 0 Z " fill="#D00B19" transform="translate(293,137)"/>
<path d="M0 0 C0.99 0.33 1.98 0.66 3 1 C3.66 0.67 4.32 0.34 5 0 C5 3.96 5 7.92 5 12 C1.69560901 7.59414535 1.13321518 5.23022392 0 0 Z " fill="#BD1219" transform="translate(313,202)"/>
<path d="M0 0 C0.99 0 1.98 0 3 0 C3.33 3.63 3.66 7.26 4 11 C2 10 2 10 0.875 7.1875 C0 4 0 4 0 0 Z " fill="#740910" transform="translate(326,240)"/>
<path d="M0 0 C0.66 0 1.32 0 2 0 C2.5345256 1.24420647 3.05208611 2.49570936 3.5625 3.75 C3.85253906 4.44609375 4.14257812 5.1421875 4.44140625 5.859375 C5.07831803 8.30012784 4.80248831 9.6403655 4 12 C3.731875 11.21625 3.46375 10.4325 3.1875 9.625 C2.15185568 6.71885077 2.15185568 6.71885077 -1 5 C-0.67 3.35 -0.34 1.7 0 0 Z " fill="#CE0B17" transform="translate(345,194)"/>
<path d="M0 0 C2 1.625 2 1.625 4 4 C4.25 7.25 4.25 7.25 4 10 C1.997499 7.997499 1.06784629 6.593341 0 4 C0 2.68 0 1.36 0 0 Z " fill="#390303" transform="translate(336,164)"/>
</svg>
